{"accessors" : [{"bufferView" : 0, "byteOffset" : 0, "componentType" : 5125, "count" : 711804, "type" : "SCALAR", "max" : [81200], "min" : [0]}, {"bufferView" : 1, "byteOffset" : 0, "componentType" : 5126, "count" : 81201, "type" : "VEC3", "max" : [56.6291694641113, 119.891616821289, 389.469512939453], "min" : [-54.6500205993652, -106.121505737305, 374.849517822266]}], "asset" : {"generator" : "Aspose.3D 20.2.1", "version" : "2.0"}, "buffers" : [{"uri" : "buffer.bin", "byteLength" : 3821636}], "bufferViews" : [{"buffer" : 0, "byteOffset" : 0, "byteLength" : 2847216, "target" : 34963}, {"buffer" : 0, "byteOffset" : 2847220, "byteLength" : 974412, "byteStride" : 12, "target" : 34962}], "meshes" : [{"primitives" : [{"attributes" : {"POSITION" : 1}, "indices" : 0, "mode" : 4}]}], "nodes" : [{"mesh" : 0, "name" : ""}], "scene" : 0, "scenes" : [{"nodes" : [0]}]}